<svg width="325" height="325" viewBox="0 0 325 325" fill="none" xmlns="http://www.w3.org/2000/svg">
<g clip-path="url(#clip0_120_154)">
<rect x="-29" y="62" width="378" height="289" fill="#1A1E27"/>
<circle cx="22.5" cy="82.5" r="30.5" fill="#1A1E27"/>
<circle cx="51.5" cy="56.5" r="41.5" fill="#1A1E27"/>
<circle cx="269.5" cy="93.5" r="41.5" fill="#1A1E27"/>
<circle cx="145.5" cy="88.5" r="41.5" fill="#1A1E27"/>
<circle cx="295" cy="51" r="31" fill="#1A1E27"/>
<circle cx="222.5" cy="54.5" r="28.5" fill="#1A1E27"/>
<circle cx="336" cy="34" r="34" fill="#1A1E27"/>
<circle cx="6" cy="50" r="35" fill="#1A1E27"/>
<circle cx="-5" cy="21" r="21" fill="#1A1E27"/>
<ellipse cx="184.5" cy="49" rx="38.5" ry="38" fill="#1A1E27"/>
<circle cx="92.5" cy="67.5" r="23.5" fill="#1A1E27"/>
<circle cx="126.5" cy="181.5" r="51.5" fill="white"/>
<circle cx="86.5" cy="211.5" r="40.5" fill="white"/>
<circle cx="127.5" cy="211.5" r="40.5" fill="white"/>
<circle cx="185" cy="203" r="37" fill="white"/>
<circle cx="168" cy="231" r="18" fill="white"/>
<circle cx="250.5" cy="221.5" r="22.5" fill="white"/>
</g>
<defs>
<clipPath id="clip0_120_154">
<rect width="325" height="325" fill="white"/>
</clipPath>
</defs>
</svg>
