<svg width="325" height="325" viewBox="0 0 325 325" fill="none" xmlns="http://www.w3.org/2000/svg">
<g clip-path="url(#clip0_120_154)">
<rect x="-14" y="58" width="375" height="267" fill="#1A1E27"/>
<circle cx="223.5" cy="75.5" r="34.5" fill="#1A1E27"/>
<ellipse cx="270" cy="80.5" rx="36" ry="22.5" fill="#1A1E27"/>
<circle cx="18.5" cy="50.5" r="23.5" fill="#1A1E27"/>
<circle cx="-12.5" cy="67.5" r="23.5" fill="#1A1E27"/>
<ellipse cx="58" cy="57.5" rx="31" ry="30.5" fill="#1A1E27"/>
<circle cx="320" cy="65" r="32" fill="#1A1E27"/>
<circle cx="123" cy="71" r="44" fill="#1A1E27"/>
<circle cx="151" cy="44" r="44" fill="#1A1E27"/>
<circle cx="265" cy="73" r="32" fill="#1A1E27"/>
<ellipse cx="217" cy="48.5" rx="33" ry="32.5" fill="#1A1E27"/>
<path d="M25 156.5C25 152.358 28.3579 149 32.5 149H168.5C172.642 149 176 152.358 176 156.5V156.5C176 160.642 172.642 164 168.5 164H32.5C28.3579 164 25 160.642 25 156.5V156.5Z" fill="white"/>
<path d="M196 156.5C196 152.358 199.358 149 203.5 149H229.5C233.642 149 237 152.358 237 156.5V156.5C237 160.642 233.642 164 229.5 164H203.5C199.358 164 196 160.642 196 156.5V156.5Z" fill="white"/>
<path d="M85 191.5C85 187.358 88.3579 184 92.5 184H228.5C232.642 184 236 187.358 236 191.5V191.5C236 195.642 232.642 199 228.5 199H92.5C88.3579 199 85 195.642 85 191.5V191.5Z" fill="white"/>
<path d="M256 191.5C256 187.358 259.358 184 263.5 184H292.5C296.642 184 300 187.358 300 191.5V191.5C300 195.642 296.642 199 292.5 199H263.5C259.358 199 256 195.642 256 191.5V191.5Z" fill="white"/>
<path d="M68 226.5C68 222.358 71.3579 219 75.5 219H177.5C181.642 219 185 222.358 185 226.5V226.5C185 230.642 181.642 234 177.5 234H75.5C71.3579 234 68 230.642 68 226.5V226.5Z" fill="white"/>
<path d="M205 226.5C205 222.358 208.358 219 212.5 219H260.5C264.642 219 268 222.358 268 226.5V226.5C268 230.642 264.642 234 260.5 234H212.5C208.358 234 205 230.642 205 226.5V226.5Z" fill="white"/>
</g>
<defs>
<clipPath id="clip0_120_154">
<rect width="325" height="325" fill="white"/>
</clipPath>
</defs>
</svg>
