<svg width="325" height="325" viewBox="0 0 325 325" fill="none" xmlns="http://www.w3.org/2000/svg">
<g clip-path="url(#clip0_120_154)">
<rect x="-42" y="52" width="378" height="273" fill="#1A1E27"/>
<circle cx="61.5" cy="55.5" r="45.5" fill="#1A1E27"/>
<circle cx="139.5" cy="62.5" r="41.5" fill="#1A1E27"/>
<circle cx="324.5" cy="40.5" r="40.5" fill="#1A1E27"/>
<circle cx="208.5" cy="58.5" r="37.5" fill="#1A1E27"/>
<circle cx="-10" cy="40" r="40" fill="#1A1E27"/>
<ellipse cx="272" cy="62.5" rx="34" ry="33.5" fill="#1A1E27"/>
<path d="M156.906 101.719C156.906 98.5606 159.467 96 162.625 96V96C165.784 96 168.345 98.5606 168.345 101.719V173.781C168.345 176.939 165.784 179.5 162.625 179.5V179.5C159.467 179.5 156.906 176.939 156.906 173.781V101.719Z" fill="white"/>
<path d="M179.036 111.483C181.269 109.249 184.891 109.249 187.124 111.483V111.483C189.358 113.716 189.358 117.337 187.124 119.571L169.038 137.657C166.804 139.891 163.183 139.891 160.949 137.657V137.657C158.716 135.424 158.716 131.803 160.949 129.569L179.036 111.483Z" fill="white"/>
<path d="M146.161 111.483C143.928 109.249 140.307 109.249 138.073 111.483V111.483C135.84 113.716 135.84 117.337 138.073 119.571L156.16 137.657C158.393 139.891 162.014 139.891 164.248 137.657V137.657C166.481 135.424 166.481 131.803 164.248 129.569L146.161 111.483Z" fill="white"/>
<path d="M227.112 135.679C229.847 134.1 233.345 135.037 234.924 137.772V137.772C236.503 140.508 235.566 144.006 232.831 145.585L170.423 181.616C167.688 183.195 164.19 182.258 162.611 179.522V179.522C161.032 176.787 161.969 173.289 164.704 171.71L227.112 135.679Z" fill="white"/>
<path d="M229.722 159.726C232.773 160.543 234.583 163.679 233.766 166.73V166.73C232.948 169.781 229.812 171.592 226.761 170.774L202.055 164.154C199.004 163.337 197.193 160.201 198.011 157.15V157.15C198.828 154.099 201.964 152.288 205.015 153.106L229.722 159.726Z" fill="white"/>
<path d="M213.285 131.256C214.103 128.205 212.292 125.069 209.241 124.251V124.251C206.19 123.434 203.054 125.244 202.237 128.295L195.617 153.002C194.799 156.053 196.61 159.189 199.661 160.007V160.007C202.712 160.824 205.848 159.013 206.665 155.962L213.285 131.256Z" fill="white"/>
<path d="M232.807 213.46C235.542 215.039 236.479 218.537 234.9 221.272V221.272C233.321 224.008 229.823 224.945 227.088 223.366L164.68 187.335C161.945 185.756 161.008 182.258 162.587 179.522V179.522C164.166 176.787 167.664 175.85 170.4 177.429L232.807 213.46Z" fill="white"/>
<path d="M213.285 227.744C214.103 230.795 212.292 233.931 209.241 234.749V234.749C206.19 235.566 203.054 233.756 202.237 230.705L195.617 205.998C194.799 202.947 196.61 199.811 199.661 198.993V198.993C202.712 198.176 205.848 199.987 206.665 203.038L213.285 227.744Z" fill="white"/>
<path d="M229.724 199.274C232.775 198.457 234.585 195.321 233.768 192.27V192.27C232.95 189.219 229.814 187.408 226.763 188.226L202.057 194.846C199.006 195.663 197.195 198.799 198.013 201.85V201.85C198.83 204.901 201.966 206.712 205.017 205.894L229.724 199.274Z" fill="white"/>
<path d="M156.906 257.281C156.906 260.439 159.467 263 162.625 263V263C165.784 263 168.345 260.439 168.345 257.281V185.219C168.345 182.061 165.784 179.5 162.625 179.5V179.5C159.467 179.5 156.906 182.061 156.906 185.219V257.281Z" fill="white"/>
<path d="M179.036 247.517C181.269 249.751 184.891 249.751 187.124 247.517V247.517C189.358 245.284 189.358 241.663 187.124 239.429L169.038 221.343C166.804 219.109 163.183 219.109 160.949 221.343V221.343C158.716 223.576 158.716 227.197 160.949 229.431L179.036 247.517Z" fill="white"/>
<path d="M146.161 247.517C143.928 249.751 140.307 249.751 138.073 247.517V247.517C135.84 245.284 135.84 241.663 138.073 239.429L156.16 221.343C158.393 219.109 162.014 219.109 164.248 221.343V221.343C166.481 223.576 166.481 227.197 164.248 229.431L146.161 247.517Z" fill="white"/>
<path d="M92.3905 213.46C89.655 215.039 88.7178 218.537 90.2971 221.272V221.272C91.8764 224.008 95.3742 224.945 98.1096 223.366L160.517 187.335C163.252 185.756 164.19 182.258 162.61 179.522V179.522C161.031 176.787 157.533 175.85 154.798 177.429L92.3905 213.46Z" fill="white"/>
<path d="M111.912 227.744C111.094 230.795 112.905 233.931 115.956 234.749V234.749C119.007 235.566 122.143 233.756 122.96 230.705L129.581 205.998C130.398 202.947 128.588 199.811 125.537 198.993V198.993C122.486 198.176 119.35 199.987 118.532 203.038L111.912 227.744Z" fill="white"/>
<path d="M95.4735 199.274C92.4225 198.457 90.6119 195.321 91.4295 192.27V192.27C92.247 189.219 95.383 187.408 98.434 188.226L123.141 194.846C126.192 195.663 128.002 198.799 127.185 201.85V201.85C126.367 204.901 123.231 206.712 120.18 205.894L95.4735 199.274Z" fill="white"/>
<path d="M98.0858 135.679C95.3503 134.1 91.8525 135.037 90.2732 137.772V137.772C88.6939 140.508 89.6311 144.006 92.3666 145.585L154.774 181.616C157.509 183.195 161.007 182.258 162.586 179.522V179.522C164.166 176.787 163.228 173.289 160.493 171.71L98.0858 135.679Z" fill="white"/>
<path d="M95.4755 159.726C92.4245 160.543 90.6139 163.679 91.4314 166.73V166.73C92.2489 169.781 95.3849 171.592 98.4359 170.774L123.143 164.154C126.194 163.337 128.004 160.201 127.187 157.15V157.15C126.369 154.099 123.233 152.288 120.182 153.106L95.4755 159.726Z" fill="white"/>
<path d="M111.914 131.256C111.096 128.205 112.907 125.069 115.958 124.251V124.251C119.009 123.434 122.145 125.244 122.962 128.295L129.583 153.002C130.4 156.053 128.589 159.189 125.538 160.007V160.007C122.488 160.824 119.351 159.013 118.534 155.962L111.914 131.256Z" fill="white"/>
</g>
<defs>
<clipPath id="clip0_120_154">
<rect width="325" height="325" fill="white"/>
</clipPath>
</defs>
</svg>
