<svg width="325" height="325" viewBox="0 0 325 325" fill="none" xmlns="http://www.w3.org/2000/svg">
<g clip-path="url(#clip0_120_154)">
<rect y="36" width="325" height="289" fill="#1A1E27"/>
<circle cx="25.5" cy="56.5" r="30.5" fill="#1A1E27"/>
<circle cx="75.5" cy="62.5" r="41.5" fill="#1A1E27"/>
<circle cx="272.5" cy="67.5" r="41.5" fill="#1A1E27"/>
<circle cx="148.5" cy="62.5" r="41.5" fill="#1A1E27"/>
<circle cx="305.5" cy="48.5" r="22.5" fill="#1A1E27"/>
<circle cx="230" cy="43" r="20" fill="#1A1E27"/>
<circle cx="327.5" cy="44.5" r="21.5" fill="#1A1E27"/>
<circle cx="-9" cy="36" r="25" fill="#1A1E27"/>
<ellipse cx="196.5" cy="43" rx="29.5" ry="29" fill="#1A1E27"/>
<circle cx="116" cy="41" r="14" fill="#1A1E27"/>
<circle cx="161.885" cy="181.5" r="60.5" fill="white"/>
<path d="M159.885 99.9766C156.676 99.9766 154.074 97.3748 154.074 94.1655L154.074 82.8114C154.074 79.602 156.676 77.0003 159.885 77.0003V77.0003C163.095 77.0003 165.696 79.602 165.696 82.8114L165.696 94.1655C165.696 97.3748 163.095 99.9766 159.885 99.9766V99.9766Z" fill="white"/>
<path d="M240.793 180.884C240.793 177.675 243.395 175.073 246.604 175.073L257.958 175.073C261.168 175.073 263.769 177.675 263.769 180.884V180.884C263.769 184.094 261.168 186.695 257.958 186.695L246.604 186.695C243.395 186.695 240.793 184.094 240.793 180.884V180.884Z" fill="white"/>
<path d="M217.096 238.094C219.365 235.825 223.045 235.825 225.314 238.094L233.343 246.123C235.612 248.392 235.612 252.072 233.343 254.341V254.341C231.073 256.61 227.394 256.61 225.125 254.341L217.096 246.313C214.827 244.043 214.827 240.364 217.096 238.094V238.094Z" fill="white"/>
<path d="M102.674 238.096C104.944 240.365 104.944 244.045 102.674 246.314L94.6456 254.343C92.3762 256.612 88.6968 256.612 86.4275 254.343V254.343C84.1581 252.073 84.1581 248.394 86.4275 246.125L94.456 238.096C96.7254 235.827 100.405 235.827 102.674 238.096V238.096Z" fill="white"/>
<path d="M159.885 284.77C156.676 284.77 154.074 282.168 154.074 278.958L154.074 267.604C154.074 264.395 156.676 261.793 159.885 261.793V261.793C163.095 261.793 165.696 264.395 165.696 267.604L165.696 278.958C165.696 282.168 163.095 284.77 159.885 284.77V284.77Z" fill="white"/>
<path d="M56 180.884C56 177.675 58.6017 175.073 61.8111 175.073L73.1652 175.073C76.3745 175.073 78.9763 177.675 78.9763 180.884V180.884C78.9763 184.094 76.3745 186.695 73.1652 186.695L61.8111 186.695C58.6017 186.695 56 184.094 56 180.884V180.884Z" fill="white"/>
<path d="M86.4261 107.426C88.6955 105.157 92.3748 105.157 94.6442 107.426L102.673 115.455C104.942 117.724 104.942 121.404 102.673 123.673V123.673C100.403 125.942 96.724 125.942 94.4546 123.673L86.4261 115.645C84.1567 113.375 84.1567 109.696 86.4261 107.426V107.426Z" fill="white"/>
<path d="M233.342 107.426C235.611 109.695 235.611 113.375 233.342 115.644L225.314 123.673C223.044 125.942 219.365 125.942 217.095 123.673V123.673C214.826 121.403 214.826 117.724 217.095 115.455L225.124 107.426C227.393 105.157 231.073 105.157 233.342 107.426V107.426Z" fill="white"/>
</g>
<defs>
<clipPath id="clip0_120_154">
<rect width="325" height="325" fill="white"/>
</clipPath>
</defs>
</svg>
