<svg width="325" height="325" viewBox="0 0 325 325" fill="none" xmlns="http://www.w3.org/2000/svg">
<g clip-path="url(#clip0_120_154)">
<rect y="69" width="381" height="290" fill="#1A1E27"/>
<circle cx="54.5" cy="90.5" r="30.5" fill="#1A1E27"/>
<circle cx="172.5" cy="87.5" r="24.5" fill="#1A1E27"/>
<circle cx="208" cy="46" r="23" fill="#1A1E27"/>
<circle cx="225" cy="55" r="23" fill="#1A1E27"/>
<circle cx="309" cy="24" r="23" fill="#1A1E27"/>
<circle cx="85" cy="42" r="23" fill="#1A1E27"/>
<circle cx="82" cy="68" r="23" fill="#1A1E27"/>
<circle cx="191" cy="57" r="23" fill="#1A1E27"/>
<circle cx="282" cy="57" r="23" fill="#1A1E27"/>
<circle cx="317" cy="62" r="23" fill="#1A1E27"/>
<circle cx="148" cy="83" r="23" fill="#1A1E27"/>
<circle cx="108" cy="53" r="23" fill="#1A1E27"/>
<circle cx="62" cy="52" r="23" fill="#1A1E27"/>
<circle cx="-5" cy="23" r="23" fill="#1A1E27"/>
<circle cx="253.5" cy="51.5" r="28.5" fill="#1A1E27"/>
<circle cx="14" cy="72" r="35" fill="#1A1E27"/>
<circle cx="9" cy="34" r="21" fill="#1A1E27"/>
<circle cx="124.5" cy="75.5" r="23.5" fill="#1A1E27"/>
<circle cx="324.5" cy="44.5" r="43.5" fill="#1A1E27"/>
<path d="M116 156L85.9844 186.682L109.094 210.305L82 238" stroke="white" stroke-width="12" stroke-linecap="round"/>
<path d="M195 121L138.5 177.5L182 221L131 272" stroke="white" stroke-width="12" stroke-linecap="round"/>
<path d="M244 157L213.984 187.682L237.094 211.305L210 239" stroke="white" stroke-width="12" stroke-linecap="round"/>
</g>
<defs>
<clipPath id="clip0_120_154">
<rect width="325" height="325" fill="white"/>
</clipPath>
</defs>
</svg>
